<?xml version="1.0" encoding="UTF-8" standalone="no"?><svg xmlns="http://www.w3.org/2000/svg" xmlns:xlink="http://www.w3.org/1999/xlink" contentScriptType="application/ecmascript" contentStyleType="text/css" height="278px" preserveAspectRatio="none" style="width:400px;height:278px;" version="1.1" viewBox="0 0 400 278" width="400px" zoomAndPan="magnify"><defs><filter height="300%" id="fxqeluwxp9uvd" width="300%" x="-1" y="-1"><feGaussianBlur result="blurOut" stdDeviation="2.0"/><feColorMatrix in="blurOut" result="blurOut2" type="matrix" values="0 0 0 0 0 0 0 0 0 0 0 0 0 0 0 0 0 0 .4 0"/><feOffset dx="4.0" dy="4.0" in="blurOut2" result="blurOut3"/><feBlend in="SourceGraphic" in2="blurOut3" mode="normal"/></filter></defs><g><rect fill="#FFFFFF" filter="url(#fxqeluwxp9uvd)" height="145.6641" style="stroke: #A80036; stroke-width: 1.0;" width="10" x="98" y="71.4297"/><rect fill="#FFFFFF" filter="url(#fxqeluwxp9uvd)" height="87.3984" style="stroke: #A80036; stroke-width: 1.0;" width="10" x="272" y="100.5625"/><rect fill="#FFFFFF" filter="url(#fxqeluwxp9uvd)" height="29.1328" style="stroke: #A80036; stroke-width: 1.0;" width="10" x="371" y="129.6953"/><line style="stroke: #A80036; stroke-width: 1.0; stroke-dasharray: 5.0,5.0;" x1="30" x2="30" y1="40.2969" y2="235.0938"/><line style="stroke: #A80036; stroke-width: 1.0; stroke-dasharray: 5.0,5.0;" x1="102.5" x2="102.5" y1="40.2969" y2="235.0938"/><line style="stroke: #A80036; stroke-width: 1.0; stroke-dasharray: 5.0,5.0;" x1="277" x2="277" y1="40.2969" y2="235.0938"/><line style="stroke: #A80036; stroke-width: 1.0; stroke-dasharray: 5.0,5.0;" x1="376" x2="376" y1="40.2969" y2="235.0938"/><rect fill="#FEFECE" filter="url(#fxqeluwxp9uvd)" height="30.2969" style="stroke: #A80036; stroke-width: 1.5;" width="46" x="5" y="5"/><text fill="#000000" font-family="sans-serif" font-size="14" lengthAdjust="spacingAndGlyphs" textLength="32" x="12" y="24.9951">User</text><rect fill="#FEFECE" filter="url(#fxqeluwxp9uvd)" height="30.2969" style="stroke: #A80036; stroke-width: 1.5;" width="46" x="5" y="234.0938"/><text fill="#000000" font-family="sans-serif" font-size="14" lengthAdjust="spacingAndGlyphs" textLength="32" x="12" y="254.0889">User</text><rect fill="#FEFECE" filter="url(#fxqeluwxp9uvd)" height="30.2969" style="stroke: #A80036; stroke-width: 1.5;" width="23" x="89.5" y="5"/><text fill="#000000" font-family="sans-serif" font-size="14" lengthAdjust="spacingAndGlyphs" textLength="9" x="96.5" y="24.9951">A</text><rect fill="#FEFECE" filter="url(#fxqeluwxp9uvd)" height="30.2969" style="stroke: #A80036; stroke-width: 1.5;" width="23" x="89.5" y="234.0938"/><text fill="#000000" font-family="sans-serif" font-size="14" lengthAdjust="spacingAndGlyphs" textLength="9" x="96.5" y="254.0889">A</text><rect fill="#FEFECE" filter="url(#fxqeluwxp9uvd)" height="30.2969" style="stroke: #A80036; stroke-width: 1.5;" width="24" x="263" y="5"/><text fill="#000000" font-family="sans-serif" font-size="14" lengthAdjust="spacingAndGlyphs" textLength="10" x="270" y="24.9951">B</text><rect fill="#FEFECE" filter="url(#fxqeluwxp9uvd)" height="30.2969" style="stroke: #A80036; stroke-width: 1.5;" width="24" x="263" y="234.0938"/><text fill="#000000" font-family="sans-serif" font-size="14" lengthAdjust="spacingAndGlyphs" textLength="10" x="270" y="254.0889">B</text><rect fill="#FEFECE" filter="url(#fxqeluwxp9uvd)" height="30.2969" style="stroke: #A80036; stroke-width: 1.5;" width="24" x="362" y="5"/><text fill="#000000" font-family="sans-serif" font-size="14" lengthAdjust="spacingAndGlyphs" textLength="10" x="369" y="24.9951">C</text><rect fill="#FEFECE" filter="url(#fxqeluwxp9uvd)" height="30.2969" style="stroke: #A80036; stroke-width: 1.5;" width="24" x="362" y="234.0938"/><text fill="#000000" font-family="sans-serif" font-size="14" lengthAdjust="spacingAndGlyphs" textLength="10" x="369" y="254.0889">C</text><rect fill="#FFFFFF" filter="url(#fxqeluwxp9uvd)" height="145.6641" style="stroke: #A80036; stroke-width: 1.0;" width="10" x="98" y="71.4297"/><rect fill="#FFFFFF" filter="url(#fxqeluwxp9uvd)" height="87.3984" style="stroke: #A80036; stroke-width: 1.0;" width="10" x="272" y="100.5625"/><rect fill="#FFFFFF" filter="url(#fxqeluwxp9uvd)" height="29.1328" style="stroke: #A80036; stroke-width: 1.0;" width="10" x="371" y="129.6953"/><polygon fill="#A80036" points="86,67.4297,96,71.4297,86,75.4297,90,71.4297" style="stroke: #A80036; stroke-width: 1.0;"/><line style="stroke: #A80036; stroke-width: 1.0;" x1="30" x2="92" y1="71.4297" y2="71.4297"/><text fill="#000000" font-family="sans-serif" font-size="13" lengthAdjust="spacingAndGlyphs" textLength="49" x="37" y="66.3638">DoWork</text><polygon fill="#A80036" points="260,96.5625,270,100.5625,260,104.5625,264,100.5625" style="stroke: #A80036; stroke-width: 1.0;"/><line style="stroke: #A80036; stroke-width: 1.0;" x1="108" x2="266" y1="100.5625" y2="100.5625"/><text fill="#000000" font-family="sans-serif" font-size="13" lengthAdjust="spacingAndGlyphs" textLength="145" x="115" y="95.4966">&lt;&lt; createRequest &gt;&gt;</text><polygon fill="#A80036" points="359,125.6953,369,129.6953,359,133.6953,363,129.6953" style="stroke: #A80036; stroke-width: 1.0;"/><line style="stroke: #A80036; stroke-width: 1.0;" x1="282" x2="365" y1="129.6953" y2="129.6953"/><text fill="#000000" font-family="sans-serif" font-size="13" lengthAdjust="spacingAndGlyphs" textLength="49" x="289" y="124.6294">DoWork</text><polygon fill="#A80036" points="293,154.8281,283,158.8281,293,162.8281,289,158.8281" style="stroke: #A80036; stroke-width: 1.0;"/><line style="stroke: #A80036; stroke-width: 1.0; stroke-dasharray: 2.0,2.0;" x1="287" x2="375" y1="158.8281" y2="158.8281"/><text fill="#000000" font-family="sans-serif" font-size="13" lengthAdjust="spacingAndGlyphs" textLength="65" x="299" y="153.7622">WorkDone</text><line style="stroke: #A80036; stroke-width: 2.0;" x1="367" x2="385" y1="149.8281" y2="167.8281"/><line style="stroke: #A80036; stroke-width: 2.0;" x1="367" x2="385" y1="167.8281" y2="149.8281"/><polygon fill="#A80036" points="119,183.9609,109,187.9609,119,191.9609,115,187.9609" style="stroke: #A80036; stroke-width: 1.0;"/><line style="stroke: #A80036; stroke-width: 1.0; stroke-dasharray: 2.0,2.0;" x1="113" x2="276" y1="187.9609" y2="187.9609"/><text fill="#000000" font-family="sans-serif" font-size="13" lengthAdjust="spacingAndGlyphs" textLength="103" x="125" y="182.895">RequestCreated</text><polygon fill="#A80036" points="41,213.0938,31,217.0938,41,221.0938,37,217.0938" style="stroke: #A80036; stroke-width: 1.0;"/><line style="stroke: #A80036; stroke-width: 1.0;" x1="35" x2="102" y1="217.0938" y2="217.0938"/><text fill="#000000" font-family="sans-serif" font-size="13" lengthAdjust="spacingAndGlyphs" textLength="34" x="47" y="212.0278">Done</text><!--MD5=[e79611ecceda9f4db08a1dbc9992aace]
@startuml
participant User

User -> A: DoWork
activate A

A -> B: << createRequest >>
activate B

B -> C: DoWork
activate C
C - -> B: WorkDone
destroy C

B - -> A: RequestCreated
deactivate B

A -> User: Done
deactivate A

@enduml

PlantUML version 1.2020.18(Wed Sep 30 12:40:44 PDT 2020)
(GPL source distribution)
Java Runtime: OpenJDK Runtime Environment
JVM: OpenJDK 64-Bit Server VM
Default Encoding: UTF-8
Language: en
Country: US
--></g></svg>