<?xml version="1.0" encoding="UTF-8" standalone="no"?>
<!DOCTYPE svg PUBLIC "-//W3C//DTD SVG 1.1//EN"
 "http://www.w3.org/Graphics/SVG/1.1/DTD/svg11.dtd">
<!-- Generated by graphviz version 2.44.1 (0)
 -->
<!-- Title: graph_name Pages: 1 -->
<svg width="576pt" height="593pt"
 viewBox="14.40 14.40 561.40 578.40" xmlns="http://www.w3.org/2000/svg" xmlns:xlink="http://www.w3.org/1999/xlink">
<g id="graph0" class="graph" transform="scale(1 1) rotate(0) translate(18.4 574.4)">
<title>graph_name</title>
<polygon fill="#343434" stroke="transparent" points="-4,4 -4,-560 543,-560 543,4 -4,4"/>
<text text-anchor="middle" x="269.5" y="-537.6" font-family="Times,serif" font-size="18.00" fill="white">sample graph</text>
<!-- alpha -->
<g id="node1" class="node">
<title>alpha</title>
<polygon fill="#006837" stroke="#d9ef8b" points="312,-528 226,-528 226,-485 312,-485 312,-528"/>
<text text-anchor="middle" x="269" y="-502.7" font-family="Migu 1M" font-size="16.00" fill="#ffffbf">alpha</text>
</g>
<!-- beta -->
<g id="node2" class="node">
<title>beta</title>
<polygon fill="#006837" stroke="#d9ef8b" points="237,-390.5 151,-390.5 151,-347.5 237,-347.5 237,-390.5"/>
<text text-anchor="middle" x="194" y="-365.2" font-family="Migu 1M" font-size="16.00" fill="#ffffbf">beta</text>
</g>
<!-- alpha&#45;&gt;beta -->
<g id="edge1" class="edge">
<title>alpha&#45;&gt;beta</title>
<path fill="none" stroke="white" d="M257.61,-484.92C245.05,-462.24 224.75,-425.55 210.46,-399.74"/>
<polygon fill="white" stroke="white" points="213.4,-397.83 205.5,-390.77 207.28,-401.22 213.4,-397.83"/>
<text text-anchor="middle" x="248.5" y="-444.8" font-family="Migu 1M" font-size="14.00" fill="white">a&#45;b</text>
</g>
<!-- gamma -->
<g id="node3" class="node">
<title>gamma</title>
<polygon fill="#006837" stroke="#d9ef8b" points="388,-412 302,-412 302,-326 388,-326 388,-412"/>
<polyline fill="none" stroke="#d9ef8b" points="314,-412 302,-400 "/>
<polyline fill="none" stroke="#d9ef8b" points="302,-338 314,-326 "/>
<polyline fill="none" stroke="#d9ef8b" points="376,-326 388,-338 "/>
<polyline fill="none" stroke="#d9ef8b" points="388,-400 376,-412 "/>
<text text-anchor="middle" x="345" y="-365.2" font-family="Migu 1M" font-size="16.00" fill="#ffffbf">gamma</text>
</g>
<!-- alpha&#45;&gt;gamma -->
<g id="edge2" class="edge">
<title>alpha&#45;&gt;gamma</title>
<path fill="none" stroke="white" d="M280.54,-484.92C290.03,-468 303.89,-443.29 316.33,-421.12"/>
<polygon fill="white" stroke="white" points="319.53,-422.56 321.37,-412.12 313.43,-419.13 319.53,-422.56"/>
<text text-anchor="middle" x="311.5" y="-444.8" font-family="Migu 1M" font-size="14.00" fill="white">a&#45;g</text>
</g>
<!-- delta -->
<g id="node4" class="node">
<title>delta</title>
<polygon fill="#006837" stroke="#d9ef8b" points="86,-231.5 0,-231.5 0,-188.5 86,-188.5 86,-231.5"/>
<text text-anchor="middle" x="43" y="-206.2" font-family="Migu 1M" font-size="16.00" fill="#ffffbf">delta</text>
</g>
<!-- beta&#45;&gt;delta -->
<g id="edge3" class="edge">
<title>beta&#45;&gt;delta</title>
<path fill="none" stroke="white" d="M174.26,-347.47C147.58,-319.74 99.92,-270.18 69.96,-239.03"/>
<polygon fill="white" stroke="white" points="72.2,-236.31 62.75,-231.53 67.15,-241.16 72.2,-236.31"/>
<text text-anchor="middle" x="131" y="-285.8" font-family="Migu 1M" font-size="14.00" fill="white">b&#45;d</text>
</g>
<!-- epsilon -->
<g id="node5" class="node">
<title>epsilon</title>
<polygon fill="#006837" stroke="#d9ef8b" points="219.11,-231.5 168.89,-231.5 151,-188.5 237,-188.5 219.11,-231.5"/>
<text text-anchor="middle" x="194" y="-206.2" font-family="Migu 1M" font-size="16.00" fill="#ffffbf">epsilon</text>
</g>
<!-- beta&#45;&gt;epsilon -->
<g id="edge4" class="edge">
<title>beta&#45;&gt;epsilon</title>
<path fill="none" stroke="white" d="M194,-347.47C194,-319.03 194,-267.64 194,-236.69"/>
<polygon fill="white" stroke="white" points="189,-232.53 199,-232.53 199,-234.53 189,-234.53 189,-232.53"/>
<polyline fill="none" stroke="white" points="194,-231.53 194,-236.53 "/>
<text text-anchor="middle" x="205.5" y="-285.8" font-family="Migu 1M" font-size="14.00" fill="white">b&#45;e</text>
</g>
<!-- zeta -->
<g id="node6" class="node">
<title>zeta</title>
<polygon fill="#006837" stroke="#d9ef8b" points="388,-253 302,-253 302,-167 388,-167 388,-253"/>
<polyline fill="none" stroke="#d9ef8b" points="314,-253 302,-241 "/>
<polyline fill="none" stroke="#d9ef8b" points="302,-179 314,-167 "/>
<polyline fill="none" stroke="#d9ef8b" points="376,-167 388,-179 "/>
<polyline fill="none" stroke="#d9ef8b" points="388,-241 376,-253 "/>
<text text-anchor="middle" x="345" y="-206.2" font-family="Migu 1M" font-size="16.00" fill="#ffffbf">zeta</text>
</g>
<!-- gamma&#45;&gt;zeta -->
<g id="edge5" class="edge">
<title>gamma&#45;&gt;zeta</title>
<path fill="none" stroke="white" d="M345,-325.93C345,-306.66 345,-283.62 345,-263.25"/>
<polygon fill="white" stroke="white" points="348.5,-263.19 345,-253.19 341.5,-263.19 348.5,-263.19"/>
<text text-anchor="middle" x="356" y="-285.8" font-family="Migu 1M" font-size="14.00" fill="white">g&#45;z</text>
</g>
<!-- eta -->
<g id="node7" class="node">
<title>eta</title>
<ellipse fill="#006837" stroke="#d9ef8b" cx="496" cy="-210" rx="43" ry="21.5"/>
<text text-anchor="middle" x="496" y="-206.2" font-family="Migu 1M" font-size="16.00" fill="#ffffbf">eta</text>
</g>
<!-- gamma&#45;&gt;eta -->
<g id="edge6" class="edge">
<title>gamma&#45;&gt;eta</title>
<path fill="none" stroke="white" stroke-dasharray="1,5" d="M385.47,-325.93C412.58,-297.73 447.45,-261.48 470.7,-237.31"/>
<polygon fill="white" stroke="white" points="473.4,-239.54 477.81,-229.91 468.36,-234.69 473.4,-239.54"/>
<text text-anchor="middle" x="431.5" y="-285.8" font-family="Migu 1M" font-size="14.00" fill="white">g&#45;e</text>
</g>
<!-- theta -->
<g id="node8" class="node">
<title>theta</title>
<ellipse fill="#006837" stroke="#d9ef8b" cx="193" cy="-47" rx="43" ry="43"/>
<ellipse fill="none" stroke="#d9ef8b" cx="193" cy="-47" rx="47" ry="47"/>
<text text-anchor="middle" x="193" y="-43.2" font-family="Migu 1M" font-size="16.00" fill="#ffffbf">theta</text>
</g>
<!-- delta&#45;&gt;theta -->
<g id="edge7" class="edge">
<title>delta&#45;&gt;theta</title>
<path fill="none" stroke="white" d="M62.3,-188.28C85.45,-163.44 124.82,-121.18 154.31,-89.53"/>
<polygon fill="white" stroke="white" points="154.38,-89.45 164.49,-85.2 157.79,-85.79 161.2,-82.13 161.2,-82.13 161.2,-82.13 157.79,-85.79 157.9,-79.07 154.38,-89.45 154.38,-89.45"/>
</g>
<!-- zeta&#45;&gt;theta -->
<g id="edge8" class="edge">
<title>zeta&#45;&gt;theta</title>
<path fill="none" stroke="white" d="M305.06,-166.7C282.44,-142.74 254.27,-112.9 231.84,-89.14"/>
<polygon fill="white" stroke="white" points="231.63,-88.92 228.04,-78.56 228.2,-85.29 224.77,-81.65 224.77,-81.65 224.77,-81.65 228.2,-85.29 221.5,-84.74 231.63,-88.92 231.63,-88.92"/>
</g>
</g>
</svg>
